<svg width="26" height="18" viewBox="0 0 26 18" fill="none" xmlns="http://www.w3.org/2000/svg">
<path fill-rule="evenodd" clip-rule="evenodd" d="M25.559 8.947C25.5604 9.32315 25.4122 9.68441 25.1471 9.95132C24.8821 10.2182 24.5219 10.3689 24.1457 10.3702L4.87614 10.4378L10.0378 15.5634C10.2892 15.8314 10.4269 16.1865 10.4217 16.5539C10.4165 16.9214 10.2689 17.2725 10.0099 17.5332C9.75099 17.794 9.40094 17.9441 9.03353 17.9518C8.66613 17.9596 8.31004 17.8245 8.04031 17.5749L0.449666 10.0373C0.183138 9.7723 0.032691 9.41235 0.0313731 9.0365C0.0300553 8.66066 0.177974 8.29966 0.442638 8.0328L7.98024 0.442161C8.24822 0.190695 8.60334 0.0530598 8.97079 0.0582543C9.33824 0.0634488 9.68933 0.211068 9.9501 0.470009C10.2109 0.72895 10.3609 1.079 10.3687 1.4464C10.3765 1.81381 10.2413 2.16989 9.99176 2.43962L4.86619 7.60126L24.1358 7.5337C24.5119 7.53238 24.8732 7.68054 25.1401 7.94558C25.407 8.21063 25.5577 8.57085 25.559 8.947Z" fill="#07289E"/>
</svg>
